name ./resultDataOpenSim/trcMotMarkerGrf/sub10/grf-03-08.mot
datacolumns 19
datarows 25
range 0.99200000 1.08800000
endheader

                time	     ground_force_vx	     ground_force_vy	     ground_force_vz	     ground_force_px	     ground_force_py	     ground_force_pz	   l_ground_force_vx	   l_ground_force_vy	   l_ground_force_vz	   l_ground_force_px	   l_ground_force_py	   l_ground_force_pz	     ground_torque_x	     ground_torque_y	     ground_torque_z	   l_ground_torque_x	   l_ground_torque_y	   l_ground_torque_z	
          0.99200000	          0.00000000	          0.00000000	          0.00000000	          0.00000000	          0.00000000	          0.00000000	         -8.89089106	        310.40109856	         13.53737378	          0.07234160	         -0.05000000	         -0.12146700	          0.00000000	          0.00000000	          0.00000000	          0.00000000	         -0.11829909	          0.00000000	
          0.99600000	          0.00000000	          0.00000000	          0.00000000	          0.00000000	          0.00000000	          0.00000000	         -8.48795175	        305.19787175	         13.45039064	          0.07247855	         -0.05000000	         -0.12158069	          0.00000000	          0.00000000	          0.00000000	          0.00000000	         -0.11570718	          0.00000000	
          1.00000000	          0.00000000	          0.00000000	          0.00000000	          0.00000000	          0.00000000	          0.00000000	         -8.13857567	        301.03034521	         13.51207746	          0.07263761	         -0.05000000	         -0.12156430	          0.00000000	          0.00000000	          0.00000000	          0.00000000	         -0.10844912	          0.00000000	
          1.00400000	          0.00000000	          0.00000000	          0.00000000	          0.00000000	          0.00000000	          0.00000000	         -7.77390569	        297.90494973	         13.69415210	          0.07276823	         -0.05000000	         -0.12147912	          0.00000000	          0.00000000	          0.00000000	          0.00000000	         -0.09832378	          0.00000000	
          1.00800000	          0.00000000	          0.00000000	          0.00000000	          0.00000000	          0.00000000	          0.00000000	         -7.31430227	        295.82630337	         13.96225872	          0.07281851	         -0.05000000	         -0.12137376	          0.00000000	          0.00000000	          0.00000000	          0.00000000	         -0.08648057	          0.00000000	
          1.01200000	          0.00000000	          0.00000000	          0.00000000	          0.00000000	          0.00000000	          0.00000000	         -6.68014331	        294.79262496	         14.28842270	          0.07279139	         -0.05000000	         -0.12127686	          0.00000000	          0.00000000	          0.00000000	          0.00000000	         -0.07327844	          0.00000000	
          1.01600000	          0.00000000	          0.00000000	          0.00000000	          0.00000000	          0.00000000	          0.00000000	         -5.80170140	        294.79997720	         14.67431955	          0.07271154	         -0.05000000	         -0.12118661	          0.00000000	          0.00000000	          0.00000000	          0.00000000	         -0.05855112	          0.00000000	
          1.02000000	          0.00000000	          0.00000000	          0.00000000	          0.00000000	          0.00000000	          0.00000000	         -4.63731944	        295.87301695	         15.16337925	          0.07261202	         -0.05000000	         -0.12108959	          0.00000000	          0.00000000	          0.00000000	          0.00000000	         -0.04207977	          0.00000000	
          1.02400000	          0.00000000	          0.00000000	          0.00000000	          0.00000000	          0.00000000	          0.00000000	         -3.19293611	        298.08140850	         15.81903026	          0.07253370	         -0.05000000	         -0.12097773	          0.00000000	          0.00000000	          0.00000000	          0.00000000	         -0.02402256	          0.00000000	
          1.02800000	          0.00000000	          0.00000000	          0.00000000	          0.00000000	          0.00000000	          0.00000000	         -1.50923686	        301.54142489	         16.68052062	          0.07252288	         -0.05000000	         -0.12084792	          0.00000000	          0.00000000	          0.00000000	          0.00000000	         -0.00509828	          0.00000000	
          1.03200000	          0.00000000	          0.00000000	          0.00000000	          0.00000000	          0.00000000	          0.00000000	          0.38074353	        306.40224617	         17.74049002	          0.07261541	         -0.05000000	         -0.12066918	          0.00000000	          0.00000000	          0.00000000	          0.00000000	          0.01346675	          0.00000000	
          1.03600000	          0.00000000	          0.00000000	          0.00000000	          0.00000000	          0.00000000	          0.00000000	          2.47047472	        312.78845296	         18.96907656	          0.07280814	         -0.05000000	         -0.12040285	          0.00000000	          0.00000000	          0.00000000	          0.00000000	          0.03000515	          0.00000000	
          1.04000000	          0.00000000	          0.00000000	          0.00000000	          0.00000000	          0.00000000	          0.00000000	          4.75859753	        320.72301281	         20.34798016	          0.07305044	         -0.05000000	         -0.12005564	          0.00000000	          0.00000000	          0.00000000	          0.00000000	          0.04233809	          0.00000000	
          1.04400000	          0.00000000	          0.00000000	          0.00000000	          0.00000000	          0.00000000	          0.00000000	          7.22601528	        330.10402738	         21.87214023	          0.07326564	         -0.05000000	         -0.11968621	          0.00000000	          0.00000000	          0.00000000	          0.00000000	          0.04769216	          0.00000000	
          1.04800000	          0.00000000	          0.00000000	          0.00000000	          0.00000000	          0.00000000	          0.00000000	          9.83707433	        340.76959734	         23.52505366	          0.07337831	         -0.05000000	         -0.11939700	          0.00000000	          0.00000000	          0.00000000	          0.00000000	          0.04282654	          0.00000000	
          1.05200000	          0.00000000	          0.00000000	          0.00000000	          0.00000000	          0.00000000	          0.00000000	         12.55436237	        352.61770861	         25.26481894	          0.07335456	         -0.05000000	         -0.11928341	          0.00000000	          0.00000000	          0.00000000	          0.00000000	          0.02441383	          0.00000000	
          1.05600000	          0.00000000	          0.00000000	          0.00000000	          0.00000000	          0.00000000	          0.00000000	         15.34959128	        365.69388452	         27.04014919	          0.07326530	         -0.05000000	         -0.11934497	          0.00000000	          0.00000000	          0.00000000	          0.00000000	         -0.01052164	          0.00000000	
          1.06000000	          0.00000000	          0.00000000	          0.00000000	          0.00000000	          0.00000000	          0.00000000	         18.20379488	        380.15844668	         28.80864155	          0.07324588	         -0.05000000	         -0.11947734	          0.00000000	          0.00000000	          0.00000000	          0.00000000	         -0.06435986	          0.00000000	
          1.06400000	          0.00000000	          0.00000000	          0.00000000	          0.00000000	          0.00000000	          0.00000000	         21.10374343	        396.16111991	         30.52993141	          0.07336942	         -0.05000000	         -0.11956271	          0.00000000	          0.00000000	          0.00000000	          0.00000000	         -0.13888775	          0.00000000	
          1.06800000	          0.00000000	          0.00000000	          0.00000000	          0.00000000	          0.00000000	          0.00000000	         24.04691083	        413.75397524	         32.15761667	          0.07360666	         -0.05000000	         -0.11953798	          0.00000000	          0.00000000	          0.00000000	          0.00000000	         -0.23535675	          0.00000000	
          1.07200000	          0.00000000	          0.00000000	          0.00000000	          0.00000000	          0.00000000	          0.00000000	         27.05488459	        432.90368726	         33.65699288	          0.07387667	         -0.05000000	         -0.11939748	          0.00000000	          0.00000000	          0.00000000	          0.00000000	         -0.35442214	          0.00000000	
          1.07600000	          0.00000000	          0.00000000	          0.00000000	          0.00000000	          0.00000000	          0.00000000	         30.17947270	        453.53808089	         35.02239647	          0.07410268	         -0.05000000	         -0.11917002	          0.00000000	          0.00000000	          0.00000000	          0.00000000	         -0.49604354	          0.00000000	
          1.08000000	          0.00000000	          0.00000000	          0.00000000	          0.00000000	          0.00000000	          0.00000000	         33.48919402	        475.54608235	         36.26138160	          0.07423511	         -0.05000000	         -0.11888828	          0.00000000	          0.00000000	          0.00000000	          0.00000000	         -0.65955657	          0.00000000	
          1.08400000	          0.00000000	          0.00000000	          0.00000000	          0.00000000	          0.00000000	          0.00000000	         37.04467612	        498.74255805	         37.36549084	          0.07427910	         -0.05000000	         -0.11857199	          0.00000000	          0.00000000	          0.00000000	          0.00000000	         -0.84396831	          0.00000000	
          1.08800000	          0.00000000	          0.00000000	          0.00000000	          0.00000000	          0.00000000	          0.00000000	         40.88168173	        522.88044087	         38.30765835	          0.07429144	         -0.05000000	         -0.11822617	          0.00000000	          0.00000000	          0.00000000	          0.00000000	         -1.04831656	          0.00000000	
